<?xml version="1.0" encoding="UTF-8" standalone="no"?>
<svg
   xmlns:dc="http://purl.org/dc/elements/1.1/"
   xmlns:cc="http://creativecommons.org/ns#"
   xmlns:rdf="http://www.w3.org/1999/02/22-rdf-syntax-ns#"
   xmlns:svg="http://www.w3.org/2000/svg"
   xmlns="http://www.w3.org/2000/svg"
   xmlns:sodipodi="http://sodipodi.sourceforge.net/DTD/sodipodi-0.dtd"
   xmlns:inkscape="http://www.inkscape.org/namespaces/inkscape"
   width="1283"
   height="327"
   version="1.0"
   id="svg2"
   inkscape:version="0.48.5 r10040"
   sodipodi:docname="Coat_of_arms_of_Mario_Grech_(cardinal).svg">
  <defs
     id="defs845" />
  <sodipodi:namedview
     pagecolor="#ffffff"
     bordercolor="#666666"
     borderopacity="1"
     objecttolerance="10"
     gridtolerance="10"
     guidetolerance="10"
     inkscape:pageopacity="0"
     inkscape:pageshadow="2"
     inkscape:window-width="1536"
     inkscape:window-height="801"
     id="namedview843"
     showgrid="false"
     inkscape:zoom="0.35355339"
     inkscape:cx="456.61884"
     inkscape:cy="320.58662"
     inkscape:window-x="-8"
     inkscape:window-y="-8"
     inkscape:window-maximized="1"
     inkscape:current-layer="svg2" />
  <metadata
     id="metadata4">
    <rdf:RDF>
      <cc:Work
         rdf:about="">
        <dc:format>image/svg+xml</dc:format>
        <dc:type
           rdf:resource="http://purl.org/dc/dcmitype/StillImage" />
        <dc:title />
      </cc:Work>
    </rdf:RDF>
  </metadata>
  <g
     id="g4311"
     transform="translate(8.7373894,-642.90849)">
    <g
       transform="translate(606.9749,85.986327)"
       id="g4159">
      <path
         style="fill:#919396;fill-opacity:1;stroke:none"
         d="m -580.57505,594.31865 c 0,0 -6.71752,1.94455 -6.71752,-4.24264 0,0 3.35876,-6.01041 11.49049,-5.48007 l 15.20279,0.53033 c -0.004,0 1.65812,-1.06067 2.65165,-2.12133 0.35319,-0.0883 -0.0134,-1.77791 10.72227,-0.33996 2.38221,0.14027 2.68724,-0.82446 4.16709,-1.07739 1.27377,-0.34171 3.42145,-0.59281 7.03095,-0.52719 l 128.69344,-4.41941 150.08341,-4.41942 c 0,0 2.47488,1.76777 6.54074,3.0052 0,0 4.24264,1.06066 4.24264,4.06587 0,0 1.94455,4.41941 -10.42982,3.7123 l -137.53227,3.53554 -152.02796,5.65685 z"
         id="path4032"
         inkscape:connector-curvature="0"
         sodipodi:nodetypes="cccccccccccccccc" />
      <path
         style="fill:#919396;fill-opacity:1;stroke:none"
         d="m -583.81688,649.05535 c 0,0 -1.41421,4.24264 9.01561,3.18198 l 166.17009,-9.72272 c 0,0 5.83364,0.53033 5.48008,-4.24264 0,0 1.23744,-4.06586 -15.02602,-2.82843 0,0 -50.0278,-1.94454 -49.67425,1.06066 l -72.832,2.12132 c 0,0 -4.41941,-0.17677 -3.88908,2.65166 0,0 -21.18334,-1.34072 -27.23771,1.11527 -1.2362,0.52015 -1.58274,1.50356 -2.32584,2.15845 -1.26305,0.8709 -3.82346,2.1055 -6.14535,1.8528 0,0 -3.18198,-0.70711 -3.53553,2.65165 z"
         id="path4034"
         inkscape:connector-curvature="0"
         sodipodi:nodetypes="cccccccccccc" />
      <path
         style="fill:#919396;fill-opacity:1;stroke:none"
         d="m -428.13118,705.45789 c 5.65686,-0.35355 4.24265,-3.71231 4.24265,-3.71231 0.17677,-3.18198 -4.5962,-3.53553 -4.5962,-3.53553 -51.44202,-1.41422 -139.12326,4.77297 -139.12326,4.77297 -16.61701,1.06066 -14.49569,6.71751 -14.49569,6.71751 0,0 0.17678,6.01041 7.77818,4.77297 0,0 62.04861,-6.71752 146.19432,-9.01561 z"
         id="path4036"
         inkscape:connector-curvature="0" />
      <path
         style="fill:#919396;fill-opacity:1;stroke:none"
         d="m -448.07661,768.95447 c 3.6862,0.76882 6.88784,-1.37897 6.77581,-4.04252 -0.11137,-2.64781 -1.51698,-3.80975 -5.89193,-3.91243 -99.70205,-1.41422 -94.22197,4.59619 -94.22197,4.59619 -0.70711,0.88389 -4.41942,1.23744 -4.41942,1.23744 l -10.96016,-0.35355 c -4.06586,-0.35356 -4.94974,1.23743 -4.94974,1.23743 l -12.1976,0 c -10.96015,0.70711 -9.36916,3.88909 -9.36916,3.88909 0,0 -0.70711,4.41942 7.95495,3.53553 0,0 52.3259,-2.12132 127.27922,-6.18718 z"
         id="path4038"
         inkscape:connector-curvature="0"
         sodipodi:nodetypes="cccccccsc" />
      <path
         style="fill:#919396;fill-opacity:1;stroke:none"
         d="m -488.7618,835.58995 c 4.39669,1.4392 12.20912,0.41462 12.20912,0.41462 2.57797,-0.14192 5.15514,-1.7561 7.30264,-1.84888 l 65.70613,-2.92409 c 10.42983,-0.15853 9.36917,-3.04414 9.36917,-3.00521 0.34811,-3.37879 -6.64476,-3.14094 -6.89429,-3.35876 l -17.7355,-2.27013 c -4.05317,-0.40234 -6.13738,-0.43915 -9.26704,-0.23229 l -49.24848,3.27284 c -1.21122,0.23003 -2.30639,-6.2e-4 -3.49087,-0.22627 l -9.23929,-1.76014 c -0.85265,-0.17053 -1.51606,-0.0691 -2.02377,0.14702 -1.52719,1.57016 -2.3426,1.46885 -4.61396,1.58663 l -66.8799,3.46784 c -1.53808,0.32026 -1.55263,0.55505 -2.16997,1.47983 -0.91942,0.8879 -2.5094,-0.16791 -3.78801,-0.38514 -3.79791,-0.62908 -9.82171,-0.3463 -13.03173,-0.126 -1.55857,0.18718 -1.53095,0.25936 -2.28055,1.46496 -0.46933,1.46596 -2.02324,2.24291 -2.02324,2.24291 l -10.42983,0.35356 c -11.3137,-0.53033 -7.95495,3.53553 -7.95495,3.53553 0,0 1.41981,1.95647 11.31371,2.12132 l 101.67714,-4.87493 c 1.39991,-0.3424 2.41882,0.48884 3.49347,0.92478 z"
         id="path4040"
         inkscape:connector-curvature="0"
         sodipodi:nodetypes="cccccccccccccccccccccccc" />
      <g
         id="g3997"
         transform="translate(-103.10155,-74.647295)">
        <path
           sodipodi:nodetypes="ccccccccccccccc"
           inkscape:connector-curvature="0"
           id="path3005"
           d="m -205.99957,664.76481 c -2.60235,1.30146 -5.66268,1.28632 -5.67678,1.30041 -9.70299,0.35011 -10.0531,-7.60236 -10.0531,-7.60236 0.74171,2.62551 5.64695,2.25658 7.35228,0.45015 2.65082,-3.201 8.35259,-3.201 8.35259,-3.201 -1.25039,-1.9506 -1.10036,-4.75147 -1.10036,-4.75147 -0.20006,-5.15159 4.5617,-10.05311 4.5617,-10.05311 0,0 4.76174,4.90152 4.56168,10.05311 0,0 0.15005,2.80087 -1.10034,4.75147 0,0 5.70176,0 8.35259,3.201 1.70532,1.80643 6.61057,2.17536 7.35228,-0.45015 0,0 -0.35011,7.95247 -10.05312,7.60236 -0.0141,-0.0141 -3.07442,0.001 -5.67676,-1.30041 0,0 3.52609,10.9534 -3.43633,16.10498 -6.96243,-5.15158 -3.43633,-16.10498 -3.43633,-16.10498 z"
           style="fill:#000000;stroke:none" />
        <path
           sodipodi:nodetypes="ccccccccccccccc"
           inkscape:connector-curvature="0"
           id="path3005-3"
           d="m -270.45923,683.72202 c -1.60297,2.42828 -4.26087,3.94533 -4.26603,3.96458 -8.22798,5.1547 -12.50742,-1.55729 -12.50742,-1.55729 1.95509,1.90291 6.01869,-0.86921 6.59233,-3.28629 0.69518,-4.09756 5.63306,-6.94845 5.63306,-6.94845 -2.05817,-1.06407 -3.32868,-3.56471 -3.32868,-3.56471 -2.74905,-4.36138 -1.076,-10.9871 -1.076,-10.9871 0,0 6.57455,1.86397 8.97709,6.4254 0,0 1.53038,2.35061 1.42281,4.66507 0,0 4.93787,-2.85088 8.83405,-1.40414 2.38008,0.71175 6.81261,-1.42138 6.14219,-4.06599 0,0 3.67303,7.0621 -4.90507,11.6104 -0.0193,-0.005 -2.66204,1.53808 -5.56643,1.71219 0,0 8.53039,7.72288 5.07654,15.6655 -8.60543,-0.98019 -11.02844,-12.22917 -11.02844,-12.22917 z"
           style="fill:#000000;stroke:none" />
        <path
           sodipodi:nodetypes="ccccccccccccccc"
           inkscape:connector-curvature="0"
           id="path3005-2"
           d="m -316.485,732.60588 c -0.17409,2.90443 -1.71736,5.54718 -1.71221,5.56645 -4.54829,8.57809 -11.61039,4.90505 -11.61039,4.90505 2.64462,0.67041 4.77774,-3.76211 4.06599,-6.14218 -1.44674,-3.89618 1.40415,-8.83406 1.40415,-8.83406 -2.31446,0.10757 -4.66508,-1.42279 -4.66508,-1.42279 -4.56143,-2.40254 -6.42539,-8.9771 -6.42539,-8.9771 0,0 6.62571,-1.67304 10.98709,1.07601 0,0 2.50064,1.2705 3.56471,3.32867 0,0 2.85089,-4.93788 6.94845,-5.63305 2.41708,-0.57365 5.1892,-4.63725 3.2863,-6.59235 0,0 6.71199,4.27944 1.55729,12.50744 -0.0192,0.005 -1.53636,2.66303 -3.96459,4.26602 0,0 11.24898,2.423 12.22916,11.02844 -7.94262,3.45384 -15.66548,-5.07655 -15.66548,-5.07655 z"
           style="fill:#000000;stroke:none" />
        <path
           sodipodi:nodetypes="ccccccccccccccc"
           inkscape:connector-curvature="0"
           id="path3005-3-9"
           d="m -330.24982,800.91479 c 1.52412,2.47855 1.77671,5.52849 1.79199,5.54128 1.19748,9.63519 -6.69389,10.67954 -6.69389,10.67954 2.55057,-0.9685 1.75399,-5.82268 -0.19464,-7.36347 -3.42061,-2.36066 -3.91934,-8.04058 -3.91934,-8.04058 -1.83376,1.41623 -4.63702,1.51175 -4.63702,1.51175 -5.11435,0.64989 -10.41358,-3.66488 -10.41358,-3.66488 0,0 4.46624,-5.17221 9.61556,-5.42355 0,0 2.77703,-0.39445 4.8295,0.68053 0,0 -0.49871,-5.6799 2.45815,-8.60055 1.65035,-1.85681 1.58879,-6.77553 -1.09153,-7.28475 0,0 7.95262,-0.34686 8.45257,9.34962 -0.0128,0.0151 0.26991,3.06256 -0.79888,5.76875 0,0 10.60298,-4.47068 16.34383,2.01447 -4.52283,7.38634 -15.7427,4.83184 -15.7427,4.83184 z"
           style="fill:#000000;stroke:none" />
        <path
           sodipodi:nodetypes="ccccccccccccccc"
           inkscape:connector-curvature="0"
           id="path3005-20"
           d="m -264.39923,909.26007 c 2.90444,0.17408 5.5472,1.71735 5.56644,1.7122 8.5781,4.54829 4.90506,11.61038 4.90506,11.61038 0.67042,-2.64461 -3.7621,-4.77772 -6.14218,-4.06599 -3.89617,1.44675 -8.83405,-1.40413 -8.83405,-1.40413 0.10757,2.31446 -1.4228,4.66507 -1.4228,4.66507 -2.40253,4.56143 -8.97711,6.4254 -8.97711,6.4254 0,0 -1.67301,-6.62572 1.07603,-10.98709 0,0 1.27049,-2.50065 3.32865,-3.56472 0,0 -4.93787,-2.85088 -5.63304,-6.94845 -0.57364,-2.41707 -4.63725,-5.1892 -6.59234,-3.28629 0,0 4.27943,-6.71199 12.50743,-1.55728 0.005,0.019 2.66303,1.53635 4.26603,3.96457 0,0 2.423,-11.24897 11.02844,-12.22917 3.45384,7.94263 -5.07656,15.6655 -5.07656,15.6655 z"
           style="fill:#000000;stroke:none" />
        <path
           sodipodi:nodetypes="ccccccccccccccc"
           inkscape:connector-curvature="0"
           id="path3005-3-2"
           d="m -313.59754,862.71913 c 2.42828,1.60298 3.94534,4.26087 3.96458,4.26603 5.15471,8.22798 -1.55728,12.50742 -1.55728,12.50742 1.90291,-1.95509 -0.86922,-6.01868 -3.28629,-6.59233 -4.09757,-0.69518 -6.94845,-5.63306 -6.94845,-5.63306 -1.06407,2.05818 -3.56471,3.32868 -3.56471,3.32868 -4.36138,2.74905 -10.98711,1.076 -10.98711,1.076 0,0 1.86398,-6.57455 6.4254,-8.97708 0,0 2.35062,-1.53038 4.66508,-1.42282 0,0 -2.85088,-4.93787 -1.40415,-8.83405 0.71175,-2.38008 -1.42138,-6.8126 -4.06598,-6.14219 0,0 7.0621,-3.67302 11.61039,4.90508 -0.005,0.0191 1.53808,2.66203 1.7122,5.56643 0,0 7.72287,-8.53039 15.6655,-5.07655 -0.9802,8.60544 -12.22918,11.02844 -12.22918,11.02844 z"
           style="fill:#000000;stroke:none" />
        <path
           sodipodi:nodetypes="ccccccccccccccc"
           inkscape:connector-curvature="0"
           id="path3005-2-2"
           d="m -199.17843,924.71208 c 2.60236,-1.30146 5.66268,-1.28632 5.6768,-1.3004 9.70298,-0.35012 10.05309,7.60235 10.05309,7.60235 -0.74172,-2.62551 -5.64696,-2.25659 -7.35228,-0.45016 -2.65082,3.20102 -8.3526,3.20101 -8.3526,3.20101 1.25039,1.95059 1.10037,4.75148 1.10037,4.75148 0.20006,5.15157 -4.5617,10.0531 -4.5617,10.0531 0,0 -4.76175,-4.90152 -4.56169,-10.05312 0,0 -0.15004,-2.80086 1.10034,-4.75146 0,0 -5.70176,1e-5 -8.35258,-3.201 -1.70533,-1.80644 -6.61057,-2.17535 -7.35228,0.45014 0,0 0.3501,-7.95247 10.05311,-7.60237 0.0138,0.014 3.07443,-9.8e-4 5.67678,1.30043 0,0 -3.52612,-10.9534 3.43632,-16.10498 6.96243,5.1516 3.43632,16.10498 3.43632,16.10498 z"
           style="fill:#000000;stroke:none" />
        <path
           sodipodi:nodetypes="ccccccccccccccc"
           inkscape:connector-curvature="0"
           id="path3005-3-4"
           d="m -134.73785,906.03539 c 1.60297,-2.4283 4.26089,-3.94535 4.26603,-3.96459 8.22798,-5.1547 12.50743,1.55728 12.50743,1.55728 -1.95511,-1.9029 -6.0187,0.86922 -6.59233,3.28631 -0.6952,4.09755 -5.63306,6.94843 -5.63306,6.94843 2.05816,1.06409 3.32867,3.56472 3.32867,3.56472 2.74907,4.36138 1.076,10.9871 1.076,10.9871 0,0 -6.57454,-1.86396 -8.97708,-6.4254 0,0 -1.5304,-2.3506 -1.42282,-4.66507 0,0 -4.93785,2.85087 -8.83405,1.40414 -2.38008,-0.71176 -6.81261,1.42137 -6.14218,4.06598 0,0 -3.67305,-7.0621 4.90507,-11.61039 0.0189,0.005 2.66204,-1.53807 5.56642,-1.71218 0,0 -8.53038,-7.72289 -5.07655,-15.66551 8.60545,0.98019 11.02845,12.22918 11.02845,12.22918 z"
           style="fill:#000000;stroke:none" />
        <path
           sodipodi:nodetypes="ccccccccccccccc"
           inkscape:connector-curvature="0"
           id="path3005-2-3"
           d="m -88.837066,856.65153 c 0.17409,-2.90443 1.71736,-5.54719 1.7122,-5.56644 4.54829,-8.57809 11.610381,-4.90505 11.610381,-4.90505 -2.6446,-0.67043 -4.777731,3.76211 -4.06598,6.14216 1.44675,3.89619 -1.404141,8.83407 -1.404141,8.83407 2.314451,-0.10757 4.665091,1.42279 4.665091,1.42279 4.56142,2.40254 6.425379,8.9771 6.425379,8.9771 0,0 -6.625709,1.67304 -10.98711,-1.076 0,0 -2.50063,-1.2705 -3.56471,-3.32868 0,0 -2.85088,4.93787 -6.94843,5.63306 -2.41708,0.57363 -5.1892,4.63723 -3.2863,6.59232 0,0 -6.711994,-4.27943 -1.55731,-12.50741 0.019,-0.005 1.53638,-2.66304 3.96459,-4.26603 0,0 -11.248974,-2.42299 -12.229154,-11.02843 7.942634,-3.45385 15.665494,5.07654 15.665494,5.07654 z"
           style="fill:#000000;stroke:none" />
        <path
           sodipodi:nodetypes="ccccccccccccccc"
           inkscape:connector-curvature="0"
           id="path3005-3-9-5"
           d="m -73.051878,791.36537 c -1.301724,-2.60225 -1.286936,-5.66258 -1.301063,-5.67663 -0.351158,-9.70298 7.601265,-10.05393 7.601265,-10.05393 -2.625407,0.74196 -2.255945,5.64718 -0.449358,7.35231 3.201306,2.65046 3.20192,8.35223 3.20192,8.35223 1.950481,-1.25062 4.751369,-1.10089 4.751369,-1.10089 5.151549,-0.2006 10.05359,4.56062 10.05359,4.56062 0,0 -4.90102,4.76226 -10.052588,4.56278 0,0 -2.800862,0.15034 -4.751594,-1.09983 0,0 6.05e-4,5.70177 -3.200109,8.35294 -1.806252,1.70553 -2.174617,6.6108 0.450992,7.35224 0,0 -7.952539,-0.3492 -7.603491,-10.05229 0.01441,-0.0133 -0.0013,-3.07442 1.299786,-5.67691 0,0 -10.953015,3.52733 -16.105352,-3.43456 5.150811,-6.96299 16.104613,-3.43808 16.104613,-3.43808 z"
           style="fill:#000000;stroke:none" />
        <path
           sodipodi:nodetypes="ccccccccccccccc"
           inkscape:connector-curvature="0"
           id="path3005-20-8"
           d="m -141.02013,680.6323 c -2.90443,-0.17408 -5.54717,-1.71736 -5.56643,-1.7122 -8.57811,-4.54828 -4.90507,-11.61037 -4.90507,-11.61037 -0.67041,2.6446 3.76212,4.7777 6.14218,4.06599 3.89619,-1.44675 8.83407,1.40411 8.83407,1.40411 -0.10757,-2.31444 1.4228,-4.66506 1.4228,-4.66506 2.40251,-4.56142 8.9771,-6.4254 8.9771,-6.4254 0,0 1.67303,6.62572 -1.07602,10.98709 0,0 -1.27049,2.50065 -3.32865,3.56472 0,0 4.93787,2.85088 5.63304,6.94844 0.57362,2.41709 4.63724,5.18921 6.59234,3.28629 0,0 -4.27944,6.712 -12.50742,1.55728 -0.005,-0.0189 -2.66303,-1.53635 -4.26605,-3.96456 0,0 -2.423,11.24897 -11.02842,12.22916 -3.45386,-7.94262 5.07653,-15.66549 5.07653,-15.66549 z"
           style="fill:#000000;stroke:none" />
        <path
           sodipodi:nodetypes="ccccccccccccccc"
           inkscape:connector-curvature="0"
           id="path3005-3-2-7"
           d="m -92.263749,726.64292 c -2.428281,-1.60298 -3.945341,-4.26087 -3.964581,-4.26603 -5.15472,-8.22798 1.55728,-12.50743 1.55728,-12.50743 -1.90291,1.95509 0.86921,6.01869 3.28628,6.59234 4.09757,0.69518 6.94847,5.63305 6.94847,5.63305 1.06407,-2.05819 3.5647,-3.32867 3.5647,-3.32867 4.361401,-2.74907 10.98711,-1.076 10.98711,-1.076 0,0 -1.863989,6.57453 -6.425399,8.97708 0,0 -2.35062,1.53037 -4.665071,1.42281 0,0 2.850871,4.93788 1.404141,8.83405 -0.711751,2.38009 1.42138,6.81261 4.06598,6.14219 0,0 -7.062101,3.67302 -11.610391,-4.90507 0.005,-0.0189 -1.53807,-2.66205 -1.71219,-5.56643 0,0 -7.72289,8.53037 -15.66551,5.07655 0.9802,-8.60544 12.229181,-11.02844 12.229181,-11.02844 z"
           style="fill:#000000;stroke:none" />
        <path
           inkscape:connector-curvature="0"
           id="path6132"
           d="m -199.66469,794.67372 c 0,1.5188 -1.23121,2.75 -2.75001,2.75 -1.51878,0 -2.74999,-1.2312 -2.74999,-2.75 0,-1.5187 1.23121,-2.75 2.74999,-2.75 1.5188,0 2.75001,1.2313 2.75001,2.75 z"
           style="fill:#000000;fill-opacity:1;fill-rule:nonzero;stroke:none" />
        <path
           sodipodi:nodetypes="csccscc"
           inkscape:connector-curvature="0"
           id="path6132-0-0"
           d="m -189.34417,796.92372 c 1.47984,0 2.67948,-1.0073 2.67948,-2.25 0,-1.2426 -1.19964,-2.25 -2.67948,-2.25 l -4.14104,0 c -1.47984,0 -2.67948,1.0074 -2.67948,2.25 0,1.2427 1.19964,2.25 2.67948,2.25 z"
           style="fill:#000000;fill-opacity:1;fill-rule:nonzero;stroke:none" />
        <path
           sodipodi:nodetypes="csccscc"
           inkscape:connector-curvature="0"
           id="path6132-0-0-9"
           d="m -211.34417,796.92372 c 1.47984,0 2.67948,-1.0073 2.67948,-2.25 0,-1.2426 -1.19964,-2.25 -2.67948,-2.25 l -4.14104,0 c -1.47984,0 -2.67948,1.0074 -2.67948,2.25 0,1.2427 1.19964,2.25 2.67948,2.25 z"
           style="fill:#000000;fill-opacity:1;fill-rule:nonzero;stroke:none" />
        <path
           sodipodi:nodetypes="csccscc"
           inkscape:connector-curvature="0"
           id="path6132-0-0-0"
           d="m -200.16296,781.59982 c 0,-1.4798 -1.00735,-2.6794 -2.25,-2.6794 -1.24264,0 -2.25,1.1996 -2.25,2.6794 l 0,4.1411 c 0,1.4798 1.00736,2.6795 2.25,2.6795 1.24265,0 2.25,-1.1997 2.25,-2.6795 z"
           style="fill:#000000;fill-opacity:1;fill-rule:nonzero;stroke:none" />
        <path
           sodipodi:nodetypes="csccscc"
           inkscape:connector-curvature="0"
           id="path6132-0-0-9-1"
           d="m -200.16296,803.59982 c 0,-1.4798 -1.00735,-2.6794 -2.25,-2.6794 -1.24264,0 -2.25,1.1996 -2.25,2.6794 l 0,4.1411 c 0,1.4798 1.00736,2.6795 2.25,2.6795 1.24265,0 2.25,-1.1997 2.25,-2.6795 z"
           style="fill:#000000;fill-opacity:1;fill-rule:nonzero;stroke:none" />
        <path
           sodipodi:nodetypes="csccscc"
           inkscape:connector-curvature="0"
           id="path6132-0-0-5"
           d="m -191.58202,787.02082 c 1.04641,-1.0465 1.18238,-2.607 0.30369,-3.4857 -0.87868,-0.8787 -2.43926,-0.7427 -3.48567,0.3037 l -2.92815,2.9281 c -1.04641,1.0464 -1.18237,2.607 -0.30369,3.4857 0.87868,0.8787 2.43926,0.7427 3.48567,-0.3037 z"
           style="fill:#000000;fill-opacity:1;fill-rule:nonzero;stroke:none" />
        <path
           sodipodi:nodetypes="csccscc"
           inkscape:connector-curvature="0"
           id="path6132-0-0-9-5"
           d="m -207.13837,802.57712 c 1.04641,-1.0464 1.18238,-2.607 0.30369,-3.4857 -0.87868,-0.8786 -2.43926,-0.7427 -3.48567,0.3037 l -2.92815,2.9282 c -1.04641,1.0464 -1.18237,2.607 -0.30369,3.4856 0.87868,0.8787 2.43926,0.7428 3.48567,-0.3036 z"
           style="fill:#000000;fill-opacity:1;fill-rule:nonzero;stroke:none" />
        <path
           sodipodi:nodetypes="csccscc"
           inkscape:connector-curvature="0"
           id="path6132-0-0-0-1"
           d="m -210.06769,783.83522 c -1.0464,-1.0464 -2.60698,-1.1824 -3.48567,-0.3037 -0.87868,0.8786 -0.74272,2.4392 0.30369,3.4856 l 2.92816,2.9282 c 1.0464,1.0464 2.60699,1.1824 3.48567,0.3037 0.87868,-0.8787 0.74271,-2.4393 -0.30369,-3.4857 z"
           style="fill:#000000;fill-opacity:1;fill-rule:nonzero;stroke:none" />
        <path
           sodipodi:nodetypes="csccscc"
           inkscape:connector-curvature="0"
           id="path6132-0-0-9-1-0"
           d="m -194.51134,799.39152 c -1.04641,-1.0464 -2.60698,-1.1824 -3.48567,-0.3037 -0.87868,0.8787 -0.74272,2.4393 0.30369,3.4857 l 2.92816,2.9281 c 1.0464,1.0465 2.60699,1.1824 3.48567,0.3037 0.87868,-0.8787 0.74271,-2.4392 -0.30369,-3.4856 z"
           style="fill:#000000;fill-opacity:1;fill-rule:nonzero;stroke:none" />
        <path
           sodipodi:nodetypes="ccccccccccccccccc"
           inkscape:connector-curvature="0"
           id="path6425-6-0"
           d="m -160.54862,788.76022 c 5.50481,-3.226 18.80663,0.3411 18.80663,0.3411 7.13244,-4.2233 13.71978,-1.2291 13.71978,-1.2291 7.10448,-7.5761 15.77007,-4.0495 15.9597,-3.9194 11.41112,4.9452 14.29465,2.2999 14.29465,2.2999 6.53091,-4.0744 4.75186,-16.0141 4.75186,-16.0141 0,0 6.73918,2.0295 11.32742,-0.9886 0,0 7.98057,-3.4854 8.19369,-10.4071 -3.70635,-5.82 -12.3266,-4.6396 -12.3266,-4.6396 -5.47825,-0.1889 -10.19729,5.0609 -10.19729,5.0609 0,0 -4.62541,-11.13965 -12.30894,-11.21899 0,0 -3.82821,-0.75894 -11.04206,9.42089 -0.0959,0.2102 -5.69141,7.745 -15.6683,4.9698 0,0 -4.09279,5.9959 -12.36744,6.1029 0,0 -9.54055,9.9871 -15.90984,10.0984 0.0564,-0.046 -6.10964,6.4627 -11.49692,8.6815 5.71085,-0.9003 14.33638,1.4516 14.26368,1.4415 z"
           style="fill:#0a694c;fill-opacity:1;stroke:none" />
        <path
           sodipodi:nodetypes="ccccccccccccccccc"
           inkscape:connector-curvature="0"
           id="path6425-6-0-1"
           d="m -168.81801,768.90652 c 3.15428,-5.5463 16.45758,-9.108 16.45758,-9.108 4.06521,-7.2237 11.26707,-7.9243 11.26707,-7.9243 2.36471,-10.1133 11.63262,-11.39192 11.86184,-11.37419 12.35492,-1.42287 13.52941,-5.15555 13.52941,-5.15555 3.61879,-6.79397 -3.89178,-16.24449 -3.89178,-16.24449 0,0 6.85103,-1.61197 9.31553,-6.51991 0,0 5.16863,-7.00876 1.8924,-13.1096 -6.11979,-3.18712 -12.99494,2.14522 -12.99494,2.14522 -4.83875,2.57555 -6.30063,9.48159 -6.30063,9.48159 0,0 -9.57559,-7.33454 -16.26934,-3.56151 0,0 -3.69485,1.25684 -4.85234,13.67983 0.0218,0.22995 -1.05635,9.55302 -11.08423,12.13804 0,0 -0.5465,7.239 -7.65908,11.46905 0,0 -3.26876,13.41942 -8.72902,16.70032 0.0269,-0.068 -2.05979,8.6517 -5.61591,13.2669 4.49551,-3.6351 13.14142,-5.9111 13.07341,-5.8834 z"
           style="fill:#0a694c;fill-opacity:1;stroke:none" />
        <path
           sodipodi:nodetypes="ccccccccccccccccc"
           inkscape:connector-curvature="0"
           id="path6425-6-0-1-6"
           d="m -186.39262,754.95842 c -0.0414,-6.38034 9.69871,-16.11646 9.69871,-16.11646 -0.0912,-8.28856 5.79549,-12.49622 5.79549,-12.49622 -3.00883,-9.94075 4.37806,-15.68198 4.58546,-15.78127 9.98831,-7.40968 9.13912,-11.22956 9.13912,-11.22956 -0.26305,-7.6931 -11.49265,-12.12223 -11.49265,-12.12223 0,0 5.12718,-4.82151 4.80751,-10.30416 0,0 0.97181,-8.65411 -4.91595,-12.29944 -6.89343,0.29979 -10.18128,8.3553 -10.18128,8.3553 -2.90278,4.64988 -0.71573,11.3616 -0.71573,11.3616 0,0 -11.95998,-1.56414 -15.87049,5.05034 0,0 -2.57134,2.93585 2.63775,14.27318 0.13403,0.18796 3.86165,8.80139 -3.53017,16.05398 0,0 3.14623,6.54237 -0.89846,13.76204 0,0 3.87878,13.25591 0.79049,18.8274 -0.008,-0.073 2.54211,8.5226 1.77002,14.2974 2.07568,-5.3958 8.42526,-11.6899 8.38016,-11.6319 z"
           style="fill:#0a694c;fill-opacity:1;stroke:none" />
        <path
           sodipodi:nodetypes="ccccccccccccccccc"
           inkscape:connector-curvature="0"
           id="path6425-6-0-12"
           d="m -197.62123,836.62102 c 3.22616,5.5048 -0.34104,18.8067 -0.34104,18.8067 4.22331,7.1324 1.22918,13.7197 1.22918,13.7197 7.57599,7.1046 4.04936,15.7701 3.91892,15.9599 -4.94523,11.4111 -2.29989,14.2946 -2.29989,14.2946 4.07429,6.5309 16.01407,4.7518 16.01407,4.7518 0,0 -2.02952,6.7392 0.9886,11.3275 0,0 3.48542,7.9806 10.40708,8.1936 5.81997,-3.7063 4.63958,-12.3265 4.63958,-12.3265 0.18885,-5.4783 -5.06096,-10.1973 -5.06096,-10.1973 0,0 11.13967,-4.6254 11.21907,-12.3089 0,0 0.75891,-3.8282 -9.421,-11.0421 -0.21003,-0.096 -7.74486,-5.6915 -4.96972,-15.6683 0,0 -5.9958,-4.0928 -6.10287,-12.3675 0,0 -9.98714,-9.5405 -10.09838,-15.9097 0.0452,0.057 -6.46275,-6.1097 -8.68152,-11.497 0.90029,5.7108 -1.45149,14.3364 -1.44155,14.2636 z"
           style="fill:#0a694c;fill-opacity:1;stroke:none" />
        <path
           sodipodi:nodetypes="ccccccccccccccccc"
           inkscape:connector-curvature="0"
           id="path6425-6-0-1-61"
           d="m -177.7675,828.35162 c 5.54631,3.1543 9.10802,16.4576 9.10802,16.4576 7.22365,4.0652 7.9243,11.2671 7.9243,11.2671 10.11334,2.3647 11.39189,11.6326 11.37421,11.8618 1.42278,12.355 5.15544,13.5295 5.15544,13.5295 6.79397,3.6187 16.24455,-3.8918 16.24455,-3.8918 0,0 1.61237,6.8509 6.5199,9.3155 0,0 7.00872,5.1687 13.10963,1.8924 3.18707,-6.1198 -2.14529,-12.9949 -2.14529,-12.9949 -2.57548,-4.8388 -9.48156,-6.3006 -9.48156,-6.3006 0,0 7.33461,-9.5756 3.56153,-16.2694 0,0 -1.25681,-3.6949 -13.6798,-4.8523 -0.22978,0.022 -9.55303,-1.0564 -12.13805,-11.0842 0,0 -7.23897,-0.5465 -11.46902,-7.6592 0,0 -13.41943,-3.2687 -16.70029,-8.729 0.0684,0.027 -8.65181,-2.0598 -13.26698,-5.6158 3.63508,4.4954 5.91113,13.1414 5.88339,13.0734 z"
           style="fill:#0a694c;fill-opacity:1;stroke:none" />
        <path
           sodipodi:nodetypes="ccccccccccccccccc"
           inkscape:connector-curvature="0"
           id="path6425-6-0-1-6-1"
           d="m -163.81945,810.77712 c 6.38032,-0.041 16.11651,9.6987 16.11651,9.6987 8.28857,-0.091 12.49624,5.7954 12.49624,5.7954 9.94073,-3.0088 15.68192,4.3781 15.78119,4.5856 7.40974,9.9882 11.22955,9.139 11.22955,9.139 7.69316,-0.263 12.12228,-11.4926 12.12228,-11.4926 0,0 4.82152,5.1272 10.30415,4.8075 0,0 8.65414,0.9718 12.29946,-4.9159 -0.29975,-6.8935 -8.3553,-10.1814 -8.3553,-10.1814 -4.64986,-2.9027 -11.36162,-0.7157 -11.36162,-0.7157 0,0 1.56415,-11.96 -5.05032,-15.8704 0,0 -2.93584,-2.5714 -14.27322,2.6377 -0.18793,0.1341 -8.80136,3.8616 -16.05396,-3.5302 0,0 -6.54235,3.1462 -13.76197,-0.8985 0,0 -13.25604,3.8789 -18.8274,0.7906 0.0725,-0.011 -8.52252,2.5421 -14.29751,1.77 5.39588,2.0757 11.68991,8.4252 11.63192,8.3802 z"
           style="fill:#0a694c;fill-opacity:1;stroke:none" />
        <path
           sodipodi:nodetypes="ccccccccccccccccc"
           inkscape:connector-curvature="0"
           id="path6425-6-0-4"
           d="m -245.97068,800.81752 c -5.50483,3.226 -18.80662,-0.3412 -18.80662,-0.3412 -7.13247,4.2234 -13.71979,1.2292 -13.71979,1.2292 -7.10451,7.576 -15.77005,4.0494 -15.9597,3.9194 -11.41118,-4.9452 -14.29469,-2.2999 -14.29469,-2.2999 -6.53091,4.0744 -4.7518,16.014 -4.7518,16.014 0,0 -6.73923,-2.0295 -11.32749,0.9887 0,0 -7.98054,3.4854 -8.19366,10.407 3.70643,5.8201 12.32657,4.6397 12.32657,4.6397 5.47827,0.1889 10.19731,-5.061 10.19731,-5.061 0,0 4.62542,11.1397 12.30894,11.219 0,0 3.82824,0.759 11.04208,-9.4209 0.0958,-0.21 5.69145,-7.745 15.66832,-4.9698 0,0 4.09269,-5.9958 12.36746,-6.1028 0,0 9.54053,-9.9871 15.90977,-10.0984 -0.057,0.045 6.10961,-6.4628 11.49684,-8.6816 -5.71072,0.9003 -14.33627,-1.4515 -14.26352,-1.4415 z"
           style="fill:#0a694c;fill-opacity:1;stroke:none" />
        <path
           sodipodi:nodetypes="ccccccccccccccccc"
           inkscape:connector-curvature="0"
           id="path6425-6-0-1-0"
           d="m -237.70126,820.67122 c -3.15432,5.5462 -16.45759,9.1079 -16.45759,9.1079 -4.06522,7.2237 -11.26709,7.9244 -11.26709,7.9244 -2.36469,10.1132 -11.6326,11.3919 -11.86186,11.3742 -12.35492,1.4228 -13.52939,5.1555 -13.52939,5.1555 -3.61884,6.794 3.89171,16.2445 3.89171,16.2445 0,0 -6.85105,1.612 -9.31548,6.5199 0,0 -5.16863,7.0088 -1.89241,13.1096 6.1198,3.1871 12.99496,-2.1452 12.99496,-2.1452 4.83868,-2.5756 6.3007,-9.4816 6.3007,-9.4816 0,0 9.57555,7.3345 16.26925,3.5615 0,0 3.69486,-1.2569 4.85235,-13.6799 -0.0218,-0.2298 1.05635,-9.553 11.08412,-12.138 0,0 0.54654,-7.2389 7.65918,-11.469 0,0 3.26878,-13.4194 8.72906,-16.7003 -0.0268,0.068 2.05973,-8.6518 5.61582,-13.267 -4.49544,3.6351 -13.14138,5.9112 -13.07332,5.8835 z"
           style="fill:#0a694c;fill-opacity:1;stroke:none" />
        <path
           sodipodi:nodetypes="ccccccccccccccccc"
           inkscape:connector-curvature="0"
           id="path6425-6-0-1-6-5"
           d="m -220.12669,834.61922 c 0.0414,6.3804 -9.69866,16.1165 -9.69866,16.1165 0.0912,8.2886 -5.7955,12.4963 -5.7955,12.4963 3.0088,9.9407 -4.3781,15.6819 -4.58557,15.7812 -9.9883,7.4097 -9.13909,11.2295 -9.13909,11.2295 0.26295,7.6931 11.49264,12.1223 11.49264,12.1223 0,0 -5.12719,4.8215 -4.80753,10.3041 0,0 -0.97182,8.6541 4.91587,12.2995 6.89354,-0.2998 10.18137,-8.3553 10.18137,-8.3553 2.90269,-4.6499 0.71576,-11.3616 0.71576,-11.3616 0,0 11.95995,1.5641 15.87045,-5.0504 0,0 2.57136,-2.9358 -2.63775,-14.2732 -0.13403,-0.1879 -3.86163,-8.8013 3.53018,-16.0539 0,0 -3.14619,-6.5424 0.89853,-13.762 0,0 -3.87883,-13.256 -0.7906,-18.8275 0.008,0.073 -2.54203,-8.5225 -1.76995,-14.2974 -2.07566,5.3958 -8.42528,11.6899 -8.38021,11.6319 z"
           style="fill:#0a694c;fill-opacity:1;stroke:none" />
        <path
           sodipodi:nodetypes="ccccccccccccccccc"
           inkscape:connector-curvature="0"
           id="path6425-6-0-12-3"
           d="m -208.89803,752.95662 c -3.22605,-5.50483 0.34106,-18.80664 0.34106,-18.80664 -4.22333,-7.13245 -1.22918,-13.71972 -1.22918,-13.71972 -7.57604,-7.10458 -4.04937,-15.77007 -3.91988,-15.95961 4.94525,-11.41119 2.29988,-14.29465 2.29988,-14.29465 -4.07429,-6.53093 -16.01398,-4.75188 -16.01398,-4.75188 0,0 2.02952,-6.73914 -0.9887,-11.32739 0,0 -3.48544,-7.98064 -10.40697,-8.19373 -5.82007,3.70638 -4.63972,12.32659 -4.63972,12.32659 -0.18881,5.47826 5.06101,10.1973 5.06101,10.1973 0,0 -11.13969,4.62543 -11.2191,12.30894 0,0 -0.75892,3.82821 9.421,11.04206 0.21005,0.0958 7.745,5.69141 4.96973,15.66828 0,0 5.99591,4.09278 6.10289,12.36752 0,0 9.98722,9.54053 10.09837,15.90973 -0.0452,-0.057 6.46274,6.1097 8.68165,11.4969 -0.90041,-5.7107 1.45146,-14.3363 1.44142,-14.2635 z"
           style="fill:#0a694c;fill-opacity:1;stroke:none" />
        <path
           sodipodi:nodetypes="ccccccccccccccccc"
           inkscape:connector-curvature="0"
           id="path6425-6-0-1-61-6"
           d="m -228.75173,761.22602 c -5.54636,-3.1543 -9.10807,-16.45755 -9.10807,-16.45755 -7.22369,-4.06524 -7.92432,-11.26708 -7.92432,-11.26708 -10.11332,-2.36474 -11.39188,-11.63261 -11.37417,-11.86185 -1.4229,-12.35494 -5.15559,-13.52944 -5.15559,-13.52944 -6.79397,-3.61876 -16.24442,3.89178 -16.24442,3.89178 0,0 -1.61236,-6.85096 -6.51993,-9.31552 0,0 -7.0087,-5.1687 -13.10961,-1.89242 -3.1871,6.1198 2.14518,12.99496 2.14518,12.99496 2.5756,4.83874 9.4817,6.30063 9.4817,6.30063 0,0 -7.33462,9.57556 -3.56156,16.26935 0,0 1.25682,3.69484 13.67977,4.85229 0.22981,-0.0221 9.5531,1.05638 12.13808,11.08425 0,0 7.23894,0.5465 11.46903,7.6591 0,0 13.41941,3.2688 16.7003,8.729 -0.0684,-0.027 8.65181,2.0598 13.26698,5.6159 -3.63504,-4.4955 -5.91112,-13.1414 -5.88338,-13.0734 z"
           style="fill:#0a694c;fill-opacity:1;stroke:none" />
        <path
           sodipodi:nodetypes="ccccccccccccccccc"
           inkscape:connector-curvature="0"
           id="path6425-6-0-1-6-1-9"
           d="m -242.69985,778.80062 c -6.38043,0.041 -16.11653,-9.6987 -16.11653,-9.6987 -8.28854,0.091 -12.49624,-5.7954 -12.49624,-5.7954 -9.94073,3.0087 -15.68197,-4.3781 -15.78118,-4.5856 -7.40975,-9.98821 -11.2296,-9.139 -11.2296,-9.139 -7.6931,0.263 -12.12226,11.4926 -12.12226,11.4926 0,0 -4.82155,-5.1272 -10.30415,-4.8075 0,0 -8.65406,-0.9718 -12.29947,4.9159 0.29983,6.8935 8.35531,10.1814 8.35531,10.1814 4.64987,2.9026 11.36166,0.7156 11.36166,0.7156 0,0 -1.56421,11.96 5.05031,15.8705 0,0 2.93586,2.5713 14.2731,-2.6377 0.18797,-0.1341 8.80146,-3.8617 16.05408,3.5301 0,0 6.54232,-3.1462 13.76196,0.8985 0,0 13.25601,-3.8788 18.82743,-0.7906 -0.0725,0.011 8.52252,-2.542 14.29747,-1.77 -5.39582,-2.0756 -11.68989,-8.4252 -11.63187,-8.3801 z"
           style="fill:#0a694c;fill-opacity:1;stroke:none" />
      </g>
    </g>
    <path
       sodipodi:nodetypes="sscssssscscssssssscssscsscscccsssssscsccscccccccsscccccccccccssccccccsscscssscssccccccscscscscscscscccssscccsscscccsssccccssssscscscscssscccscssscccsssssssccccsssssssssscccssscccsscscccsscccssscccsscsccscccccscsccscccccsscsssssssccccccscsscssscscccccsscsccssscscscsccccscccccsscccccsscccccssscscccccscccccccscscscscsccccsccccccssssccccccsscccsssccccccssssscsccscscssssscscscscscssscssssscscsssscccsssssssssccssssssscccscscsssscssscccscsscccccccccsccscscsssscscccccccscssssscscccccccccccccscsscccssssscccccsssssscccssccccccccccccccscccccccccccccccccccccsccccccccccccscsccsscsssscscsscsssccsccscscssssscsscssssccssscccccscccsssccccccssccccscsssssccssscssscsccccssssssscsssssssccsssssscsssscssssssssccsscccscssssssssccssssccccsccccccccccsccscccccccccccccccccccccccccccccccsssscccssscsssccccccsssscccsssscssccssscssssscccscscccsssccccccscscccscccccccccccccccccccccccssssssccssssccccccsscscccssccccccccc"
       inkscape:connector-curvature="0"
       id="path4309"
       d="m 1124.099,944.35926 c -4.125,-1.63721 -9.2293,-3.26091 -11.3428,-3.60823 -4.7518,-0.78085 -9.0708,-4.30885 -11.9018,-9.72197 -1.6993,-3.24941 -2.242,-6.35406 -2.5586,-14.63671 -0.4386,-11.47497 0.5512,-16.83387 4.0749,-22.06266 3.5966,-5.33709 8.2126,-7.92543 14.1262,-7.9211 10.9442,0.008 16.6737,8.10079 17.4176,24.60178 0.5168,11.46582 -1.4311,18.85633 -6.4276,24.38691 l -3.5322,3.90974 5.5721,1.61987 c 6.0735,1.76562 6.0412,1.7332 4.537,4.5437 -1.2945,2.41883 -0.9829,2.45358 -9.9648,-1.11133 z m -3.6573,-11.00935 c 6.999,-5.50539 7.771,-32.21429 1.138,-39.3714 -3.4202,-3.69039 -8.4908,-3.53876 -11.7645,0.35178 -7.0394,8.36587 -5.5686,35.36933 2.155,39.56609 3.6181,1.96596 5.4257,1.84935 8.4715,-0.54647 z m -310.18526,7.09715 c -4.3127,-1.06766 -5.2277,-2.05711 -4.4947,-4.86037 0.5237,-2.00245 0.9814,-2.18558 3.7173,-1.48715 9.4177,2.40425 16.62,-0.8176 16.62,-7.43475 0,-4.85619 -1.3078,-6.71539 -7.8484,-11.15699 -3.1903,-2.16648 -7.2797,-5.62382 -9.0877,-7.68298 -2.9723,-3.3853 -3.2424,-4.21048 -2.8192,-8.61458 0.79,-8.22156 6.8868,-12.80539 17.0321,-12.80539 6.5413,0 8.922,1.51569 7.625,4.85452 -0.6594,1.69734 -1.4013,2.16624 -2.6582,1.67997 -6.2115,-2.4031 -12.4882,-0.65148 -14.2476,3.97599 -1.6965,4.46234 0.6082,8.12641 8.3588,13.28891 5.2757,3.51393 7.7503,5.92897 9.4576,9.2299 3.9525,7.64145 1.601,15.28722 -5.8691,19.08325 -4.2541,2.1618 -11.3463,3.02875 -15.7859,1.92967 z m -347.1574,-1.36071 c 0,-0.72517 0.6551,-3.53767 1.4557,-6.25 0.8006,-2.71232 3.7283,-13.2565 6.5061,-23.4315 6.5627,-24.03932 6.1625,-23.19352 10.7941,-22.81001 l 3.7441,0.31001 2.6439,10 c 1.4541,5.5 4.4893,16.975 6.745,25.5 2.2556,8.525 4.1034,16.0625 4.1061,16.75 0,0.75501 -1.3366,1.25 -3.383,1.25 l -3.3879,0 -1.9086,-7.75 -1.9085,-7.75 -7.1203,-0.29213 -7.1203,-0.29213 -1.5197,5.29213 c -0.8359,2.91067 -1.8221,6.52963 -2.1916,8.04213 -0.5686,2.32738 -1.1931,2.75 -4.0635,2.75 -2.1406,0 -3.3916,-0.48634 -3.3916,-1.3185 z m 23.3557,-20.44792 c 0.2605,-0.42154 -0.7857,-6.15904 -2.3248,-12.75 -1.5392,-6.59097 -3.0277,-11.30858 -3.3079,-10.48358 -1.5885,4.67823 -4.8132,22.04501 -4.2596,22.94068 0.7467,1.20821 9.1724,1.45768 9.8923,0.2929 z m 18.6443,-5.2028 0,-27.03078 3.5,0 3.5,0 0,23.96107 0,23.96106 8.75,0.28894 c 8.5896,0.28363 8.75,0.33475 8.75,2.78893 l 0,2.5 -12.25,0.28078 -12.25,0.28078 z m 59,0.48827 0,-26.48095 2.5733,-0.64585 c 4.2099,-1.05662 16.6816,0.15804 20.1598,1.96343 4.6504,2.41386 6.5882,6.75678 6.0281,13.51009 -0.4153,5.00816 -0.8557,5.88005 -4.5982,9.10337 -3.9204,3.3765 -4.0357,3.62927 -2.1825,4.78663 2.7087,1.69157 4.478,5.54696 6.3076,13.74423 0.8593,3.85 1.8691,7.7875 2.2441,8.75 0.5803,1.4894 0.083,1.75 -3.3356,1.75 l -4.0174,0 -2.1232,-9.22127 c -2.5262,-10.97194 -4.6101,-13.77873 -10.2303,-13.77873 l -3.8257,0 0,11.5 0,11.5 -3.5,0 -3.5,0 z m 17.5966,-4.01556 c 2.9757,-1.91402 4.7563,-6.8091 3.9807,-10.94349 -0.89,-4.74378 -4.6942,-7.56 -10.2121,-7.56 l -4.3652,0 0,9.83333 c 0,5.40834 0.3303,10.16366 0.7341,10.56739 0.9861,0.98613 7.2545,-0.2197 9.8625,-1.89723 z m 19.0993,29.85905 c -0.3827,-0.38273 -0.6959,-12.55972 -0.6959,-27.05999 l 0,-26.36411 12.25,0.28078 c 11.8446,0.27149 12.2606,0.35525 12.5696,2.53078 0.31,2.18315 0.065,2.25 -8.25,2.25 l -8.5696,0 0,9 0,9 8,0 c 7.8667,0 8,0.0417 8,2.5 0,2.45833 -0.1333,2.5 -8,2.5 l -8,0 0,9.96107 0,9.96106 8.75,0.28894 c 8.5896,0.28363 8.75,0.33475 8.75,2.78893 l 0,2.5 -12.0541,0.27921 c -6.6298,0.15356 -12.3673,-0.0339 -12.75,-0.41667 z m 33.5378,-26.11254 0.2663,-26.75 7.4789,-0.29843 c 12.1345,-0.4842 19.0892,3.31731 23.2971,12.73438 2.9034,6.4977 2.7473,20.81462 -0.3043,27.90816 -4.1387,9.62072 -10.4917,13.14015 -23.738,13.15031 l -7.2663,0.006 0.2663,-26.75 z m 16.3993,20.11987 c 2.0984,-0.99576 4.4921,-3.42793 6.1511,-6.25 2.4655,-4.19389 2.7159,-5.54192 2.7159,-14.61987 0,-8.71037 -0.3078,-10.53731 -2.3871,-14.16639 -2.8614,-4.99403 -7.3172,-7.6317 -12.1129,-7.17033 l -3.5,0.33672 -0.2714,20.473 c -0.1493,11.26015 -0.051,21.04765 0.2186,21.75 0.6779,1.76658 5.0751,1.59754 9.1858,-0.35313 z m 31.2649,4.38013 c -2.0761,-1.37477 -4.537,-4.5297 -6.3263,-8.11052 -2.6114,-5.22606 -2.9344,-6.9041 -2.9837,-15.5 -0.065,-11.40006 1.9652,-18.46289 6.7741,-23.56183 7.5818,-8.03907 20.6415,-6.37165 25.5567,3.26303 7.1056,13.92799 3.9951,37.40821 -5.8166,43.90828 -4.6738,3.09634 -12.529,3.09682 -17.2042,10e-4 z m 11.4961,-3.70971 c 1.4235,-0.5412 3.5018,-2.83061 4.7659,-5.25 1.9141,-3.66341 2.2488,-5.89756 2.2909,-15.29029 0.052,-11.54075 -1.0085,-16.02566 -4.7869,-20.25 -2.9786,-3.33011 -7.835,-3.02373 -10.9612,0.69152 -7.3911,8.78385 -5.5802,36.7536 2.5926,40.04408 2.9113,1.17212 3.154,1.1743 6.0987,0.0547 z m 51.2103,4.92128 c -7.444,-2.22762 -12.7258,-10.9491 -13.3928,-22.11504 -1.0104,-16.9117 5.4247,-27.99137 17.8648,-30.75903 2.517,-0.55997 6.2533,-0.74599 8.303,-0.41338 3.3048,0.5363 3.6924,0.90028 3.4237,3.21532 -0.2874,2.47598 -0.5607,2.59398 -5.303,2.289 -9.931,-0.6387 -15.6738,6.39466 -16.3333,20.00397 -0.4595,9.48083 1.6529,16.64652 5.9806,20.28807 2.5205,2.12086 4.0251,2.52952 9.3128,2.52952 5.4793,0 6.3757,0.26409 6.8331,2.01309 0.3438,1.31484 -0.1132,2.3554 -1.3176,3 -2.216,1.18592 -11.3383,1.15534 -15.3713,-0.0515 z m 21.7827,-0.64595 c 0.6269,-2.02002 11.1613,-40.25028 13.0378,-47.31562 1.1543,-4.34601 1.3386,-4.51052 5.3852,-4.8075 2.3045,-0.16912 4.19,-0.0933 4.19,0.16848 0,0.26179 3.15,12.24935 7,26.63902 3.85,14.38967 7,26.35136 7,26.58152 0,0.23016 -1.5624,0.41848 -3.4721,0.41848 -3.3331,0 -3.5314,-0.20999 -4.9578,-5.25 -0.8172,-2.8875 -1.7785,-6.4875 -2.1363,-8 -0.6352,-2.68505 -0.8206,-2.75 -7.8487,-2.75 l -7.1981,0 -2.0053,7.75 -2.0053,7.75 -3.7764,0.31562 c -3.2586,0.27235 -3.6992,0.0667 -3.213,-1.5 z m 23.613,-20.74009 c 0,-1.40243 -3.7133,-18.75206 -4.5949,-21.46866 -0.2487,-0.76622 -0.6336,-1.21166 -0.8554,-0.98988 -0.83,0.82995 -5.4213,22.28177 -4.9368,23.06574 0.2779,0.4495 2.7286,0.81727 5.4461,0.81727 3.6089,0 4.941,-0.38404 4.941,-1.42447 z m 49.4629,21.18819 c -0.274,-0.71398 -0.3777,-12.7654 -0.2305,-26.78093 l 0.2676,-25.48279 12.25,-0.28078 12.25,-0.28078 0,2.53078 c 0,2.50921 -0.072,2.53078 -8.5,2.53078 l -8.5,0 0,9 0,9 8,0 c 7.8302,0 8,0.0522 8,2.45794 0,2.37402 -0.2646,2.4679 -7.75,2.75 l -7.75,0.29206 -0.2857,9.71055 -0.2857,9.71054 8.7857,0.28946 c 8.6276,0.28424 8.7857,0.33445 8.7857,2.78945 l 0,2.5 -12.2695,0.28094 c -9.3418,0.21389 -12.3884,-0.0288 -12.7676,-1.01722 z m 32.2038,0.56961 c -0.3667,-0.36666 -0.6667,-12.51666 -0.6667,-27 l 0,-26.33333 3.5,0 3.5,0 0,24 0,24 8.3776,0 c 8.7616,0 11.2882,1.10135 10.0327,4.37325 -0.5274,1.37436 -2.4436,1.62675 -12.3506,1.62675 -6.4495,0 -12.0264,-0.3 -12.393,-0.66667 z m 30,0 c -0.3667,-0.36666 -0.6667,-12.51666 -0.6667,-27 l 0,-26.33333 3.5,0 3.5,0 0,24 0,24 9,0 c 7.8039,0 9,0.22593 9,1.7 0,1.06879 0.3495,1.34727 0.9413,0.75 0.8908,-0.89908 2.9305,-7.88491 10.5409,-36.10088 1.8025,-6.68299 3.583,-12.64549 3.9566,-13.25 0.3736,-0.60452 2.2373,-1.09912 4.1417,-1.09912 4.122,0 4.3447,0.40868 7.9011,14.5 1.3881,5.5 4.2638,16.4492 6.3904,24.33156 4.076,15.10807 4.0342,15.72249 -1.0213,14.99752 -1.9254,-0.2761 -2.6363,-1.5366 -4.4156,-7.82908 l -2.1207,-7.5 -7.1071,-0.2928 -7.1071,-0.2928 -1.1174,4.2928 c -0.6146,2.36104 -1.5545,5.9803 -2.0886,8.0428 l -0.9713,3.75 -15.7948,0 c -8.6871,0 -16.0948,-0.3 -16.4614,-0.66667 z m 48.846,-21.3539 c 0.3469,-0.56131 -0.6095,-6.29881 -2.1255,-12.75 l -2.7563,-11.72943 -2.8328,11.93023 c -2.225,9.37012 -2.5609,12.10287 -1.5655,12.73469 1.8206,1.15559 8.5342,1.0214 9.2801,-0.18549 z m 70.18316,21.38311 c -0.3828,-0.38273 -0.6959,-12.57304 -0.6959,-27.08957 l 0,-26.3937 3.75,0.31036 3.75,0.31037 0.268,23.71133 0.268,23.71133 8.732,0.28867 c 8.5705,0.28333 8.732,0.33491 8.732,2.78867 l 0,2.5 -12.0541,0.27921 c -6.6298,0.15356 -12.3673,-0.0339 -12.75,-0.41667 z m 37.3142,-0.61254 c 0.01,-0.6875 3.1555,-12.66302 7,-26.61228 3.8444,-13.94925 6.9899,-25.56262 6.9899,-25.80749 0,-0.24488 1.8887,-0.30685 4.1972,-0.13773 l 4.1972,0.3075 6.7854,25.5 c 3.7319,14.025 6.7932,26.0625 6.8028,26.75 0.01,0.75772 -1.3183,1.25 -3.3742,1.25 -2.8755,0 -3.4906,-0.41843 -4.0422,-2.75 -0.3578,-1.5125 -1.3191,-5.1125 -2.1363,-8 l -1.4858,-5.25 -6.9441,0 -6.9441,0 -1.5816,5.75 c -2.6076,9.48055 -3.0921,10.25 -6.4529,10.25 -1.7558,0 -3.0172,-0.52358 -3.0113,-1.25 z m 23.3257,-20.5 c 0.5453,-0.90116 -4.5604,-23.25047 -5.3112,-23.24892 -0.9166,0.002 -5.2628,21.80453 -4.5701,22.92537 0.7469,1.20844 9.1788,1.48453 9.8813,0.32355 z m 66.9627,19.84746 c -6.2314,-3.91043 -6.763,-6.18143 -7.1191,-30.41203 l -0.3205,-21.81458 3.8205,0.31458 3.8206,0.31457 0.5,21.8387 0.5,21.8387 2.8058,2.4113 c 3.5603,3.05979 6.8283,3.05968 10.3884,-3.2e-4 l 2.8058,-2.41163 0.3041,-22.08837 0.3042,-22.08838 3.4458,0 3.4459,0 0,21.03212 c 0,22.75992 -0.4734,25.37487 -5.4198,29.93794 -3.7575,3.46629 -14.549,4.09728 -19.2817,1.1274 z m 37.3682,1.23587 c -0.3667,-0.36666 -0.6667,-12.51666 -0.6667,-27 l 0,-26.33333 3.5,0 3.5,0 0,27 0,27 -2.8333,0 c -1.5584,0 -3.1334,-0.3 -3.5,-0.66667 z m 17.3333,-26.33333 0,-27 3.5,0 3.5,0 0,24 0,24 7.9182,0 c 4.355,0 8.5554,0.2445 9.3342,0.54334 1.0965,0.42078 2.821,-4.59838 7.6447,-22.25 3.4259,-12.53634 6.4635,-23.60486 6.7502,-24.59672 0.4139,-1.43168 1.3711,-1.74085 4.6443,-1.5 l 4.123,0.30338 6.7238,25 c 3.6981,13.75 6.7548,25.7875 6.7927,26.75 0.051,1.29573 -0.7154,1.75 -2.9525,1.75 -3.3608,0 -3.8453,-0.76945 -6.4529,-10.25 l -1.5816,-5.75 -6.9441,0 -6.9441,0 -1.4858,5.25 c -0.8172,2.8875 -1.7785,6.4875 -2.1363,8 l -0.6506,2.75 -15.8916,0 -15.8916,0 z m 47.6413,5.23469 c 0.8279,-0.53298 0.4228,-3.82335 -1.4755,-11.98469 -1.4392,-6.1875 -2.9652,-11.25 -3.3912,-11.25 -0.426,0 -0.7746,0.70469 -0.7746,1.56598 0,0.8613 -0.9527,5.57448 -2.1171,10.47375 -1.1644,4.89926 -1.8535,9.59457 -1.5313,10.43401 0.6176,1.60964 7.1412,2.144 9.2897,0.76095 z m -716.64126,-5.73469 0,-26.5 12,0 12,0 0,2.45956 c 0,2.39052 -0.2315,2.46771 -8.25,2.75 l -8.25,0.29044 -0.2875,9.25 -0.2875,9.25 8.0375,0 c 7.87,0 8.0375,0.0512 8.0375,2.45794 0,2.37402 -0.2646,2.4679 -7.75,2.75 l -7.75,0.29206 -0.2817,11.75 -0.2817,11.75 -3.4683,0 -3.4683,0 z m 446,6.5 c 0,-1.87302 0.6667,-2 10.5,-2 9.83326,0 10.49996,0.12698 10.49996,2 0,1.87302 -0.6667,2 -10.49996,2 -9.8333,0 -10.5,-0.12698 -10.5,-2 z m 62.45816,-16.75 c 0.3697,-0.9625 1.537,-4.86982 2.594,-8.68294 2.0146,-7.26764 3.0006,-8.52659 6.6978,-8.55175 3.0781,-0.0209 2.8654,1.31789 -1.714,10.78759 -3.1335,6.47952 -4.4131,8.1971 -6.107,8.1971 -1.6303,0 -1.9822,-0.41864 -1.4708,-1.75 z M 852.00634,849.07786 c -3.4063,-1.79849 -5.0664,-3.61273 -7.3096,-7.98822 -2.5265,-4.92838 -2.9108,-6.79546 -2.9686,-14.42301 -0.1259,-16.63011 6.2095,-26.26178 17.2742,-26.26178 4.1707,0 9.0967,1.71147 9.0967,3.16052 0,0.46171 0.4362,0.83948 0.9692,0.83948 0.5576,0 1.0885,-5.20247 1.25,-12.25 l 0.2808,-12.25 3.3772,-0.32284 c 1.8574,-0.17757 3.7313,0.0474 4.1642,0.5 0.4329,0.45256 0.9344,16.34784 1.1144,35.32284 l 0.3272,34.5 -3.7078,0.30836 c -3.2591,0.27103 -3.7855,-10e-4 -4.3499,-2.25 -0.6249,-2.48985 -2.4253,-3.61038 -2.4253,-1.50947 0,1.29721 -7.7407,4.89922 -10.5927,4.92915 -1.151,0.0121 -4.076,-1.02518 -6.5,-2.30503 z m 13.2431,-5.7535 c 3.4733,-1.85885 4.8496,-7.03518 4.8496,-18.23951 0,-9.15295 -0.2706,-10.78713 -2.2821,-13.78212 -1.8014,-2.68198 -3.0626,-3.46309 -5.986,-3.70741 -6.8264,-0.57048 -10.7207,6.08055 -10.7207,18.30953 0,14.10105 6.1598,21.68996 14.1392,17.41951 z m 175.60866,6.71404 c -8.3004,-3.08774 -11.0835,-6.8688 -12.8086,-17.40122 -1.1618,-7.09316 -1.2304,-48.24265 -0.083,-50.05153 0.5241,-0.82661 2.2921,-1.20001 4.7347,-1 l 3.8978,0.3192 0.5,27.5 c 0.4382,24.10088 0.718,27.82086 2.264,30.09587 3.2179,4.73535 8.5959,6.06217 13.756,3.39378 5.2377,-2.70853 5.441,-3.8471 5.98,-33.48965 l 0.5,-27.5 4.5,0 4.5,0 0,27 c 0,24.44226 -0.1769,27.33156 -1.867,30.5 -2.4117,4.52117 -5.4605,7.84011 -8.7969,9.57616 -4.0891,2.12774 -12.757,2.66444 -17.077,1.05739 z m 141.9584,0.33339 c -5.8348,-1.4642 -9.1971,-3.54104 -13.0835,-8.08143 -5.4147,-6.32587 -7.134,-12.44376 -7.134,-25.38551 0,-13.27076 1.768,-19.25074 7.6758,-25.96233 6.256,-7.10724 10.6379,-8.98954 20.9884,-9.01574 4.7653,-0.0121 8.9129,0.22569 9.2169,0.52834 0.304,0.30264 0.1974,1.87764 -0.237,3.5 -0.7783,2.90712 -0.8772,2.94489 -6.8515,2.61437 -7.0752,-0.39143 -10.5013,1.03113 -15.1012,6.27018 -8.0779,9.20023 -8.3872,33.23682 -0.5476,42.55368 4.4593,5.29965 11.0519,7.54611 17.7271,6.04061 3.4297,-0.77353 3.8284,-0.63512 4.6888,1.62784 1.2922,3.39869 1.1958,4.03105 -0.727,4.76888 -3.0813,1.18239 -12.7986,1.49886 -16.6152,0.54111 z M 467.27614,848.8833 c -2.7808,-1.20777 -3.2112,-1.81326 -2.6377,-3.71086 1.0445,-3.45582 2.0365,-4.06492 4.4856,-2.75422 1.2318,0.65925 4.8016,1.22278 7.9328,1.25227 9.1524,0.0862 14.0474,-3.94549 14.0385,-11.56269 -0.01,-4.97225 -3.1415,-8.98892 -11.5773,-14.82983 -4.2681,-2.95521 -9.1459,-7.10239 -10.8396,-9.21594 -2.6345,-3.28767 -3.0794,-4.67132 -3.0794,-9.57784 0,-11.29383 8.3715,-17.56942 22.5766,-16.92434 8.915,0.40486 10.4659,1.28789 9.006,5.12779 -0.971,2.55398 -1.138,2.5962 -7.9965,2.02121 -8.0574,-0.6755 -11.3684,0.75954 -13.5113,5.85592 -2.5843,6.1464 0.772,11.11478 12.2942,18.19922 3.4521,2.12252 7.5718,5.64716 9.1549,7.83254 7.4119,10.23181 3.3793,23.27042 -8.7667,28.34534 -4.4773,1.87072 -16.7165,1.83671 -21.0801,-0.0586 z m 59.3169,0.32949 c -0.2682,-0.71936 -0.6016,-14.58294 -0.7408,-30.80794 l -0.2532,-29.5 -6.5,-0.3028 c -7.4174,-0.34554 -8.5134,-1.0153 -7.6023,-4.64549 l 0.6512,-2.59472 19.2256,0.2715 19.2255,0.27151 0,3 0,3 -7.2356,0.29352 -7.2356,0.29352 -0.2644,30.70648 -0.2644,30.70648 -4.2591,0.30794 c -2.8266,0.20437 -4.4232,-0.13199 -4.7469,-1 z m 31.8615,-0.55794 c 0.2696,-0.9625 2.1379,-7.825 4.1516,-15.25 7.4515,-27.47524 12.6735,-46.56913 13.401,-49 0.634,-2.11833 1.4367,-2.54552 5.2577,-2.79816 2.81,-0.18579 4.9108,0.19107 5.5744,1 0.5858,0.71399 2.65,7.37316 4.5871,14.79816 1.9371,7.425 5.8059,22.1241 8.5974,32.66467 2.7914,10.54057 5.0753,19.42807 5.0753,19.75 0,0.32193 -2.0124,0.58533 -4.4721,0.58533 l -4.472,0 -1.4626,-5.25 c -0.8044,-2.8875 -2.0695,-7.5 -2.8114,-10.25 l -1.3488,-5 -8.9331,0 -8.9331,0 -1.3703,5 c -0.7536,2.75 -2.0381,7.3625 -2.8544,10.25 l -1.4841,5.25 -4.4964,0 c -3.8024,0 -4.4208,-0.27011 -4.0062,-1.75 z m 30.3792,-27.5 c -5.6109,-25.3266 -7.7347,-33.05378 -7.7347,-28.14158 0,1.06797 -1.35,7.47022 -3,14.22722 -4.1848,17.13764 -4.4327,16.16436 4.1166,16.16436 6.8612,0 7.0987,-0.0807 6.6181,-2.25 z m 40.979,28.63039 c -0.3925,-0.39255 -0.7137,-14.36372 -0.7137,-31.04706 l 0,-30.33333 -7,0 -7,0 0,-3.52159 0,-3.5216 19.25,0.2716 19.25,0.27159 0.31,3.20498 0.31,3.20498 -7.31,0.29502 -7.31,0.29502 -0.5,30.5 -0.5,30.5 -4.0363,0.29705 c -2.2199,0.16338 -4.3574,-0.0241 -4.75,-0.41666 z m 32.2863,-0.91822 c 0,-1.34894 10.3727,-40.28583 16.5866,-62.26295 l 1.4988,-5.30078 5.2073,0.30078 5.2073,0.30078 2.6265,10 c 1.4446,5.5 5.3821,20.42251 8.75,33.16113 3.3679,12.73862 6.1235,23.677 6.1235,24.3075 0,0.73023 -1.5427,1.03474 -4.25,0.83887 -4.6848,-0.33896 -4.1026,0.69138 -8.9326,-15.8075 l -1.3174,-4.5 -8.668,-0.28774 -8.6681,-0.28774 -1.6536,5.78774 c -0.9094,3.18326 -2.2285,7.81274 -2.9311,10.28774 -1.2267,4.32066 -1.4431,4.51225 -5.4284,4.8075 -3.3175,0.24577 -4.1508,-0.0243 -4.1508,-1.34533 z m 30,-26.90162 c 0,-0.79169 -1.35,-6.9679 -3,-13.72491 -1.65,-6.757 -3,-13.30925 -3,-14.56055 0,-1.2513 -0.45,-2.27509 -1,-2.27509 -0.55,0 -1.0054,0.7875 -1.0119,1.75 -0.01,0.9625 -1.3512,7.375 -2.9881,14.25 -1.6368,6.875 -2.9814,13.2875 -2.988,14.25 -0.01,1.50114 0.9835,1.75 6.988,1.75 5.4247,0 7,-0.32394 7,-1.43945 z m 33.2369,-5.78572 0.2631,-34.27483 4.5,0 4.5,0 0.2644,30.71738 0.2644,30.71739 11.2356,0.28261 11.2356,0.28262 0,3 0,3 -16.2631,0.27483 -16.2632,0.27484 z m 45.2276,32.99306 c -0.2709,-0.70571 -0.3736,-16.12968 -0.2284,-34.2755 l 0.2639,-32.99239 15.25,-0.27605 15.25,-0.27604 0,3.52604 0,3.52605 -10.5,0 -10.5,0 0,11.5 0,11.5 10,0 10,0 0,3 0,3 -10,0 -10,0 0,13 0,13 11.5634,0 11.5633,0 -0.3133,3.25 -0.3134,3.25 -15.7716,0.2755 c -12.1147,0.21163 -15.8857,-0.022 -16.2639,-1.00761 z m 126.768,-23.51789 0.2675,-24.75 4,0 4,0 0.2675,24.75 0.2675,24.75 -4.535,0 -4.5349,0 z m 47.4715,24.05483 c -0.794,-1.32646 4.1617,-66.5705 5.1301,-67.53886 0.4918,-0.49183 2.8418,-0.75288 5.2223,-0.58011 l 4.328,0.31414 5.2679,17 c 2.8974,9.35 6.4949,21.37848 7.9945,26.72996 1.4997,5.35147 2.9076,9.54905 3.1287,9.32794 0.2211,-0.2211 1.6583,-5.27458 3.1938,-11.22995 2.9234,-11.33827 8.0759,-29.48586 10.6692,-37.57795 l 1.5223,-4.75 4.9005,0 c 4.27036,0 4.96356,0.28936 5.39016,2.25 0.4772,2.19315 4.5485,59.98214 4.5485,64.56276 0,2.09008 -0.3916,2.2739 -4.25,1.99474 l -4.25,-0.3075 -1.16506,-18.5 c -0.6408,-10.175 -1.2337,-22.325 -1.3177,-27 -0.1772,-9.87379 -0.3713,-9.59128 -5.4958,8 -2.0028,6.875 -5.4698,18.26188 -7.7045,25.30418 l -4.0631,12.80418 -3.021,-0.30418 c -2.8277,-0.2847 -3.1663,-0.78437 -5.2896,-7.80418 -1.2477,-4.125 -4.0849,-13.35 -6.3049,-20.5 -2.22,-7.15 -4.8338,-15.7 -5.8085,-19 l -1.7721,-6 -0.7644,13 c -0.4204,7.15 -1.1084,19.075 -1.5289,26.5 l -0.7644,13.5 -3.6571,0.30483 c -2.0114,0.16765 -3.8739,-0.0574 -4.1389,-0.5 z m 142.57666,-0.78279 c -3.0589,-1.32994 -3.1651,-1.55526 -2.1308,-4.52212 0.7968,-2.28587 1.5254,-2.95353 2.7193,-2.49203 10.4351,4.03376 20.6912,1.38428 23.1191,-5.97247 2.2169,-6.71723 -1.5001,-12.45735 -12.5119,-19.32177 -12.9032,-8.04351 -16.368,-17.54069 -9.9751,-27.3425 3.4902,-5.35138 9.452,-7.87115 18.6233,-7.87115 8.812,0 11.5077,1.34442 10.5275,5.25016 -0.6376,2.54027 -0.7083,2.55687 -8.5858,2.01693 -7.835,-0.53702 -7.9844,-0.50286 -11.0046,2.51733 -3.5001,3.50015 -4.0219,7.78143 -1.4741,12.09454 0.8731,1.47815 5.2329,5.14759 9.6883,8.1543 4.4555,3.0067 9.4018,7.10111 10.9918,9.09868 7.2887,9.15691 3.4818,22.89646 -7.7591,28.00308 -4.9133,2.23207 -17.4809,2.45089 -22.2279,0.38702 z m 50.9562,-32.77204 0.2631,-34.25 3.8982,-0.3192 c 2.144,-0.17556 4.169,0.11821 4.5,0.65281 0.331,0.53461 0.4776,16.09075 0.3257,34.56921 l -0.2761,33.59718 -4.487,0 -4.4871,0 z m 73.4741,33.5 c -0.2238,-0.4125 3.6961,-15.825 8.7111,-34.25 l 9.118,-33.5 5.1873,-0.30078 5.1872,-0.30078 1.5092,5.30078 c 2.7876,9.79108 16.5762,62.20058 16.5762,63.00509 0,0.43763 -1.9931,0.79569 -4.429,0.79569 l -4.4291,0 -1.4841,-5.25 c -0.8163,-2.8875 -2.1008,-7.5 -2.8544,-10.25 l -1.3703,-5 -8.9331,0 -8.9331,0 -1.3488,5 c -4.5255,16.77578 -3.8517,15.5 -8.187,15.5 -2.1522,0 -4.0962,-0.3375 -4.3201,-0.75 z m 30.2913,-27 c 0,-0.91416 -6.0714,-28.14673 -6.7473,-30.25 -0.4651,-1.44753 -7.172,25.69498 -7.2276,29.25 -0.024,1.50261 0.9622,1.75 6.9726,1.75 3.85,0 7.0011,-0.3375 7.0023,-0.75 z m -344.80226,-30.45 c -0.66,-0.66 -1.2,-2.37 -1.2,-3.8 0,-3.31779 1.6974,-5 5.045,-5 2.842,0 5.955,2.70467 5.955,5.17375 0,3.7754 -7.0443,6.38196 -9.8,3.62625 z m -405.4655,-40.82164 c -17.025,-4.31131 -25.9498,-18.69305 -26.0501,-41.97836 -0.047,-10.98348 1.3862,-18.01899 5.4252,-26.62657 6.1986,-13.21013 20.8047,-20.86401 36.1551,-18.94609 7.3158,0.91404 7.8943,1.41298 6.691,5.77099 l -0.9967,3.60974 -7.7295,-0.48197 c -6.7111,-0.41848 -8.3205,-0.17527 -12.2151,1.84596 -5.6413,2.92773 -10.5008,9.29911 -12.6947,16.64438 -2.2935,7.67855 -2.3123,25.62683 -0.035,33.24736 4.134,13.83296 15.537,21.0914 28.471,18.12292 4.7665,-1.09395 4.8,-1.07095 5.7384,3.93125 0.5537,2.95108 0.344,3.73029 -1.1592,4.30788 -3.098,1.19043 -17.6152,1.56176 -21.6006,0.55251 z m 57.2655,-0.28572 c -5.3312,-1.68038 -13.3043,-10.21722 -15.8185,-16.93702 -5.7807,-15.45055 -5.4903,-39.22636 0.6487,-53.10471 8.2264,-18.59695 30.956,-23.58048 43.5684,-9.55247 14.4343,16.05441 13.7649,58.73807 -1.1552,73.65814 -6.4589,6.45893 -17.7672,8.9229 -27.2434,5.93606 z m 18.0529,-11.62753 c 6.2336,-6.55296 7.4506,-11.80869 7.4248,-32.06511 -0.02,-15.84668 -0.2374,-18.03754 -2.2993,-23.18968 -4.2116,-10.52389 -12.556,-14.65232 -20.334,-10.06032 -7.7522,4.57677 -12.3622,24.40331 -10.1232,43.53709 1.9731,16.861 7.8146,25.71291 16.9685,25.71291 4.0764,0 5.0604,-0.46297 8.3632,-3.93489 z m 118.9471,12.24297 c -1.375,-0.23075 -4.013,-0.89604 -5.8622,-1.47841 -3.1616,-0.99567 -3.3279,-1.27068 -2.7863,-4.60796 0.3167,-1.952 0.9392,-3.9124 1.3833,-4.35644 0.444,-0.44404 3.0069,-0.14538 5.6952,0.66369 6.5526,1.97206 13.2121,1.82107 18.07,-0.40969 6.0371,-2.77222 7.8176,-5.33347 8.2774,-11.90674 0.5327,-7.6144 -1.7976,-10.98311 -12.7908,-18.49121 -15.9954,-10.92448 -20.4946,-17.02121 -19.7864,-26.8119 0.7704,-10.65076 8.5038,-18.01038 21.2125,-20.18729 6.4295,-1.10132 17.7716,0.0622 19.7338,2.02435 0.4423,0.44232 0.2788,2.51623 -0.3634,4.60869 -1.0377,3.38103 -1.4523,3.7394 -3.7254,3.21987 -15.8731,-3.62802 -25.0577,0.55966 -25.0577,11.42496 0,6.24844 2.7178,9.57267 13.5278,16.54628 14.5151,9.36384 20.5533,18.54978 19.1109,29.07357 -2.0193,14.73175 -18.083,23.80226 -36.6387,20.68823 z m 362.93616,-2.05808 c -12.394,-6.2856 -19.0725,-24.06809 -17.558,-46.75 1.605,-24.03475 11.2443,-37.75833 27.5494,-39.22213 8.6912,-0.78027 13.7511,1.05854 19.6924,7.1563 8.5472,8.77237 12.1315,22.27084 11.0371,41.56583 -0.6945,12.24547 -2.3505,19.01708 -6.4241,26.26995 -7.105,12.64994 -21.7557,17.34031 -34.2968,10.98005 z m 19.0309,-8.87579 c 6.5299,-5.49452 9.389,-15.6269 9.4173,-33.37421 0.02,-12.6942 -1.3771,-20.15985 -5.0667,-27.07059 -6.534,-12.23825 -20.0596,-10.25342 -25.2841,3.71036 -4.516,12.07003 -4.5165,35.64917 0,47.7179 4.1036,10.96785 13.7023,15.10203 20.9345,9.01654 z m 152.248,10.42008 c -12.2808,-4.12601 -20.2393,-21.11261 -20.1977,-43.10967 0.04,-20.89009 6.6069,-35.88119 18.342,-41.86797 5.0124,-2.55715 13.8091,-3.39924 19.4812,-1.8649 5.3802,1.45533 12.3178,7.67829 15.2017,13.63568 5.011,10.35134 6.9698,26.21835 5.0332,40.7711 -2.9193,21.9371 -12.0327,32.7794 -28.005,33.3179 -3.6138,0.12183 -8.0487,-0.27513 -9.8554,-0.88214 z m 17.2008,-10.85462 c 2.0344,-1.78622 4.429,-5.4291 5.7517,-8.75 2.0557,-5.16114 2.2687,-7.36174 2.2929,-23.68967 0.024,-16.48073 -0.1669,-18.48023 -2.2662,-23.68968 -1.3242,-3.28584 -3.7655,-6.98263 -5.7784,-8.75 -6.5533,-5.75391 -15.6228,-3.35938 -20.1076,5.3088 -6.0458,11.68538 -6.7934,36.15189 -1.5576,50.97287 3.8866,11.00181 14.2452,15.11254 21.6652,8.59768 z m -630.41586,-32.43967 0,-43.5 5.5338,0 5.5337,0 3.5756,7.75 c 8.9437,19.38528 24.5792,53.12835 26.2963,56.75 l 1.8964,4 -0.1679,-34 -0.1679,-34 5.25,-0.30226 5.25,-0.30226 0,43.55226 0,43.55226 -5.7838,0 -5.7839,0 -12.1308,-25.75 c -6.672,-14.1625 -13.5967,-29.35 -15.3881,-33.75 -1.7915,-4.4 -3.5173,-8.31558 -3.8353,-8.7013 -0.3179,-0.38571 -0.4436,14.80179 -0.2793,33.75 l 0.2989,34.4513 -5.0489,0 -5.0488,0 z m 132,0.0203 0,-43.52029 20.0575,0 20.0575,0 -0.3075,4.25 -0.3075,4.25 -13.75,0.27822 -13.75,0.27822 0,13.9419 0,13.94191 12.75,0.27987 12.75,0.27988 0,4 0,4 -12.75,0.27988 -12.75,0.27987 0,15.94339 0,15.94339 14.75,0.27674 14.75,0.27673 0,4 0,4 -20.75,0.27029 -20.75,0.27029 z m 54,0.54098 0,-42.93872 4.4691,-0.67019 c 2.458,-0.36859 9.5576,-0.50865 15.7768,-0.31122 9.741,0.30922 11.9955,0.71289 16.2718,2.91355 7.1196,3.66389 10.5536,8.96374 11.2246,17.32368 0.3889,4.84482 0.079,7.80179 -1.1581,11.04046 -3.6257,6.84082 -7.9638,10.056 -13.4677,13.07684 -0.1384,0.57209 0.9344,1.61694 3.1593,3.01668 4.7314,2.97649 7.3357,8.63524 10.6113,23.05644 1.6154,7.11217 3.2498,13.71871 3.632,14.68121 0.6158,1.55075 0,1.75 -5.3734,1.75 l -6.0682,0 -1.4929,-5.02711 c -0.8211,-2.76491 -2.2399,-8.78842 -3.1529,-13.38557 -2.8736,-14.4699 -7.8031,-19.94484 -17.4317,-19.36044 l -4.5,0.27312 -0.272,18.75 -0.2721,18.75 -5.9779,0 -5.978,0 z m 28.6563,-5.65394 c 4.8673,-3.63398 6.6909,-7.01763 7.0838,-13.14389 0.4259,-6.63994 -1.5214,-11.35978 -6.0617,-14.69236 -2.2349,-1.64038 -4.3145,-2.07108 -10,-2.07108 l -7.1784,0 -0.2753,16.36428 -0.2753,16.36428 6.9933,-0.39517 c 5.0133,-0.28327 7.7636,-0.97019 9.7136,-2.42606 z m 48.4877,41.88893 c -1.0826,-3.73794 -5.2042,-18.72126 -9.1591,-33.29626 -3.955,-14.575 -8.2695,-30.46997 -9.5878,-35.32216 -1.3184,-4.85219 -2.3971,-9.46469 -2.3971,-10.25 0,-1.07745 1.463,-1.42784 5.9615,-1.42784 l 5.9614,0 0.9978,3.75 c 3.0931,11.62561 14.0799,56.7225 15.1543,62.20263 1.5477,7.89469 1.5868,7.80624 6.3959,-14.45263 2.0201,-9.35 5.5788,-24.65 7.9083,-34 l 4.2355,-17 6.1927,-0.29772 c 4.2586,-0.20474 6.1926,0.0707 6.1926,0.8819 0,0.64879 -1.8395,7.75776 -4.0878,15.79772 -2.2483,8.03995 -6.3399,22.7181 -9.0924,32.6181 -2.7525,9.9 -6.2202,22.275 -7.7061,27.5 l -2.7016,9.5 -6.1499,0.29626 -6.1499,0.29626 z m 37.5071,3.95374 c 0.379,-1.5125 5.676,-20.975 11.7711,-43.25 l 11.082,-40.5 6.6268,-0.29293 6.6267,-0.29293 2.0726,7.79293 c 15.6405,58.80898 20.1697,76.25413 20.1697,77.68792 0,1.44187 -0.8779,1.65856 -5.6919,1.40491 l -5.6919,-0.2999 -1.8472,-7.5 c -1.0159,-4.125 -2.5172,-9.8625 -3.336,-12.75 l -1.4888,-5.25 -11.3474,0 -11.3473,0 -3.1754,11.75 c -1.7465,6.4625 -3.3635,12.3125 -3.5933,13 -0.2674,0.79966 -2.4177,1.25 -5.9685,1.25 l -5.5504,0 z m 38.3591,-32 c 0.017,-1.2829 -8.1345,-36.63947 -8.9235,-38.70264 -0.5507,-1.44004 -1.078,-0.25872 -2.0085,4.5 -0.694,3.54895 -2.7347,12.62591 -4.535,20.17101 -1.8002,7.5451 -3.0339,13.9576 -2.7415,14.25 0.8314,0.83132 18.1971,0.62306 18.2085,-0.21837 z m 41.9898,-4.25 0,-39 -9.5,0 -9.5,0 0,-4.51747 0,-4.51747 24.75,0.26747 24.74996,0.26747 0,4 0,4 -9.25,0.28753 -9.25,0.28752 0,38.96248 0,38.96247 -5.99996,0 -6,0 z m 118.99996,-3.93873 0,-42.93872 4.5653,-0.68461 c 2.5109,-0.37654 9.5984,-0.47724 15.75,-0.22379 8.9598,0.36916 12.1399,0.91774 15.9863,2.75773 7.6879,3.67756 11.6984,10.60591 11.6984,20.20946 0,8.44591 -5.2308,17.01475 -12.1313,19.87304 -3.6084,1.49464 -3.5921,2.08708 0.1175,4.2784 4.6296,2.73477 7.6667,9.06955 10.388,21.66722 1.3662,6.325 2.966,12.76679 3.555,14.3151 0.5889,1.5483 1.0708,3.0108 1.0708,3.25 0,0.23919 -2.6278,0.4349 -5.8395,0.4349 -7.0286,0 -7.1381,-0.16316 -10.1294,-15.08463 -3.6189,-18.05171 -6.5721,-21.96522 -17.1532,-22.73058 l -5.8779,-0.42517 0,19.12019 0,19.12019 -6,0 -6,0 z m 26.6553,-4.702 c 5.4079,-2.56621 8.4493,-7.32281 8.9989,-14.07377 0.5425,-6.66388 -1.3473,-11.31706 -5.9759,-14.71442 -2.2348,-1.64038 -4.3144,-2.07108 -10,-2.07108 l -7.1783,0 -0.2748,16.25 -0.2747,16.25 5.6236,0 c 3.1416,0 7.1497,-0.72415 9.0812,-1.64073 z m 38.3447,4.14073 0,-43.5 6,0 6,0 0,43.5 0,43.5 -6,0 -6,0 z"
       style="fill:#000000" />
  </g>
</svg>
